<svg id="Ebene_1" data-name="Ebene 1" xmlns="http://www.w3.org/2000/svg" xmlns:xlink="http://www.w3.org/1999/xlink" viewBox="0 0 444.41 648.75"><defs><style>.cls-1{fill:#ddd;}.cls-2{fill:url(#Unbenannter_Verlauf_4);}.cls-3{fill:url(#Unbenannter_Verlauf_6);}.cls-4{fill:url(#Unbenannter_Verlauf_6-2);}.cls-5{fill:url(#Unbenannter_Verlauf_6-3);}.cls-6{fill:#ec5c56;}.cls-7{fill:url(#Unbenannter_Verlauf_4-2);}.cls-8{fill:url(#Unbenannter_Verlauf_4-3);}.cls-9{fill:url(#Unbenannter_Verlauf_4-4);}.cls-10{fill:url(#Unbenannter_Verlauf_4-5);}.cls-11{fill:url(#Unbenannter_Verlauf_4-6);}.cls-12{fill:url(#Unbenannter_Verlauf_4-7);}.cls-13{fill:url(#Unbenannter_Verlauf_4-8);}.cls-14{fill:url(#Unbenannter_Verlauf_4-9);}.cls-15{fill:url(#Unbenannter_Verlauf_4-10);}.cls-16{fill:url(#Unbenannter_Verlauf_4-11);}.cls-17{fill:url(#Unbenannter_Verlauf_4-12);}.cls-18{fill:url(#Unbenannter_Verlauf_4-13);}.cls-19{fill:url(#Unbenannter_Verlauf_4-14);}.cls-20{fill:url(#Unbenannter_Verlauf_4-15);}</style><linearGradient id="Unbenannter_Verlauf_4" x1="75.2" y1="136.5" x2="370.85" y2="136.5" gradientUnits="userSpaceOnUse"><stop offset="0" stop-color="#ddd"/><stop offset="1" stop-color="#EC5C56"/></linearGradient><linearGradient id="Unbenannter_Verlauf_6" x1="192.61" y1="367.75" x2="267.61" y2="367.75" gradientUnits="userSpaceOnUse"><stop offset="0" stop-color="#ddd"/><stop offset="1" stop-color="#816452"/></linearGradient><linearGradient id="Unbenannter_Verlauf_6-2" x1="-2492.5" y1="-977" x2="-2262.5" y2="-977" gradientTransform="translate(1230.5 -1806.5) rotate(-90)" xlink:href="#Unbenannter_Verlauf_6"/><linearGradient id="Unbenannter_Verlauf_6-3" x1="283.86" y1="140.75" x2="283.86" y2="106.25" xlink:href="#Unbenannter_Verlauf_6"/><linearGradient id="Unbenannter_Verlauf_4-2" x1="369.61" y1="287.05" x2="463.57" y2="287.05" gradientTransform="translate(123.27 -150.65) rotate(26.47)" xlink:href="#Unbenannter_Verlauf_4"/><linearGradient id="Unbenannter_Verlauf_4-3" x1="289.15" y1="355.5" x2="399.46" y2="355.5" gradientTransform="translate(123.27 -150.65) rotate(26.47)" xlink:href="#Unbenannter_Verlauf_4"/><linearGradient id="Unbenannter_Verlauf_4-4" x1="309.85" y1="452.2" x2="385.99" y2="452.2" gradientTransform="translate(123.27 -150.65) rotate(26.47)" xlink:href="#Unbenannter_Verlauf_4"/><linearGradient id="Unbenannter_Verlauf_4-5" x1="428.61" y1="390.23" x2="498.54" y2="390.23" gradientTransform="translate(123.27 -150.65) rotate(26.47)" xlink:href="#Unbenannter_Verlauf_4"/><linearGradient id="Unbenannter_Verlauf_4-6" x1="371.46" y1="449.17" x2="421.94" y2="449.17" gradientTransform="translate(123.27 -150.65) rotate(26.47)" xlink:href="#Unbenannter_Verlauf_4"/><linearGradient id="Unbenannter_Verlauf_4-7" x1="421.97" y1="463.01" x2="463.57" y2="463.01" gradientTransform="translate(123.27 -150.65) rotate(26.47)" xlink:href="#Unbenannter_Verlauf_4"/><linearGradient id="Unbenannter_Verlauf_4-8" x1="406.12" y1="491.38" x2="421.48" y2="491.38" gradientTransform="translate(123.27 -150.65) rotate(26.47)" xlink:href="#Unbenannter_Verlauf_4"/><linearGradient id="Unbenannter_Verlauf_4-9" x1="397.74" y1="463.01" x2="441.26" y2="463.01" gradientTransform="translate(146.65 -103.4) rotate(26.47)" xlink:href="#Unbenannter_Verlauf_4"/><linearGradient id="Unbenannter_Verlauf_4-10" x1="229.88" y1="248.02" x2="344.76" y2="248.02" gradientTransform="translate(-249.51 140.22) rotate(-28.89)" xlink:href="#Unbenannter_Verlauf_4"/><linearGradient id="Unbenannter_Verlauf_4-11" x1="292.85" y1="354.55" x2="332.58" y2="354.55" gradientTransform="translate(-249.51 140.22) rotate(-28.89)" xlink:href="#Unbenannter_Verlauf_4"/><linearGradient id="Unbenannter_Verlauf_4-12" x1="190.83" y1="351.21" x2="283.31" y2="351.21" gradientTransform="translate(-249.51 140.22) rotate(-28.89)" xlink:href="#Unbenannter_Verlauf_4"/><linearGradient id="Unbenannter_Verlauf_4-13" x1="321.64" y1="695.91" x2="427.14" y2="695.91" gradientTransform="translate(-21.31 1290.98) rotate(-142.77)" xlink:href="#Unbenannter_Verlauf_4"/><linearGradient id="Unbenannter_Verlauf_4-14" x1="379.47" y1="792.64" x2="415.95" y2="792.64" gradientTransform="translate(-21.31 1290.98) rotate(-142.77)" xlink:href="#Unbenannter_Verlauf_4"/><linearGradient id="Unbenannter_Verlauf_4-15" x1="285.78" y1="789.58" x2="370.7" y2="789.58" gradientTransform="translate(-21.31 1290.98) rotate(-142.77)" xlink:href="#Unbenannter_Verlauf_4"/></defs><title>Robot</title><rect class="cls-1" x="46.02" width="354" height="273" rx="15" ry="15"/><rect class="cls-2" x="75.2" y="22.5" width="295.65" height="228" rx="15" ry="15"/><rect class="cls-1" x="194.61" y="269.75" width="72" height="135"/><polygon class="cls-1" points="365.61 647.75 85.61 648.75 26.61 327.75 426.61 327.75 365.61 647.75"/><rect class="cls-3" x="192.61" y="341.75" width="75" height="52" rx="15" ry="15"/><path class="cls-4" d="M289.62,464l8.11,40.3a10,10,0,0,1,.17,2.75l-19.17,169.7a10,10,0,0,1-10,9.22h-30.5a10,10,0,0,1-10-9.22L209.11,507.57a10,10,0,0,1,.16-2.73L217.4,464a10,10,0,0,1,9.81-8h52.61A10,10,0,0,1,289.62,464Z" transform="translate(-23.39 -47.25)"/><line class="cls-5" x1="266.61" y1="140.75" x2="301.11" y2="106.25"/><path class="cls-6" d="M321,163h33a33,33,0,0,1-66,1.15Z" transform="translate(-23.39 -47.25)"/><path class="cls-6" d="M184.89,163h33a33,33,0,0,1-66,1.15Z" transform="translate(-23.39 -47.25)"/><path class="cls-1" d="M333,263a104.65,104.65,0,0,0-148,0l-16.26-16.26a127.65,127.65,0,0,1,180.53,0Z" transform="translate(-23.39 -47.25)"/><polygon class="cls-7" points="444.41 160.57 371.63 303.46 339.01 245.3 315.95 373.82 309.32 410.7 306.63 425.75 308.93 431.81 310.41 427.18 346.05 315.8 378.83 376.12 444.41 160.57"/><polygon class="cls-8" points="228.86 299.46 277.95 409.47 282.98 420.69 284.48 421.77 281.67 411.93 260.25 336.53 303.69 360.13 261.56 220.33 271.34 321.92 228.86 299.46"/><polygon class="cls-9" points="258.01 432.62 262.38 434.58 263.09 434.5 259.72 432.37 233.97 415.98 252.72 411.59 204.26 381.83 233.41 408.85 215.24 413.32 258.01 432.62"/><polygon class="cls-10" points="418.04 375.83 358.76 410.79 354.2 375.96 312.82 431.71 310.57 434.76 314.82 435.55 319.8 430.85 344.75 407.42 349.03 443.2 418.04 375.83"/><polygon class="cls-11" points="257.96 445.15 276.41 443.29 271.82 426.55 279.26 431.86 280.76 432.93 287.45 437.74 296.6 421.59 297.72 424.29 300.22 430.27 302.57 435.88 301.55 425.59 299.92 409.15 299.6 406.03 286.21 428.5 277.95 423.09 274.23 420.64 263.04 413.29 268.96 438.74 242.45 443.37 271.22 455.79 257.96 445.15"/><polygon class="cls-12" points="317.2 456.52 333.55 437.82 323.22 439.12 316.25 439.99 304.92 441.42 313.99 443.04 318.24 443.82 321.13 444.32 307.65 456.51 319.64 466.15 303.97 466.66 302.73 480.06 287.73 465.75 306.04 491.06 308.36 471.92 332.27 469.63 317.2 456.52"/><polygon class="cls-13" points="275.48 458.19 273.81 461.14 261.45 482.96 286.04 468.03 273.19 471.18 275.48 458.19"/><path class="cls-14" d="M323.89,508.41l9.94,2.25-6.31-8.92,9.81-7.25-14.56-2.59-2.45-14.08L312.87,491l-10.53-7.56,2.8,11-12.47,1.26,10.57,9.54-1.85,8.18,8.3-4.76L324,520ZM319,510.62l-8-6.08-7.15,3.8,3.48-7s-6.23-2.41-6.79-2.68,7.54-1.12,7.54-1.12l-.4-4.84,5.39,2.69L317,489.9l.58,5.86,9.62.61L319.38,500l6.08,4.17-8.42-.83Z" transform="translate(-23.39 -47.25)"/><polygon class="cls-15" points="141.33 181.07 158.44 219.56 126.44 252.98 122.62 256.97 126.22 260.56 150.42 284.68 129.64 296.1 126.03 298.08 129.16 300.47 198.28 353.33 135.63 299.15 158.4 288.98 162.89 286.97 159.5 282.99 137.75 257.42 172.6 226.55 176.15 223.41 174.38 218.35 155.35 163.87 151.97 154.19 141.92 158.55 70.91 189.38 31.33 94.3 0 108.85 52.75 211.37 58.72 222.98 69.56 217.48 141.33 181.07"/><polygon class="cls-16" points="204.17 295.1 202.84 290.75 189.72 247.79 178.85 251.6 193.82 289.42 178.31 293.71 172.62 295.28 176.87 299.01 196.37 316.1 186.37 320.72 184.94 321.37 185.66 322.64 202.72 352.79 188.8 322.79 200.67 318.42 203.43 317.41 201.28 315.19 185.29 298.72 200.01 295.9 204.17 295.1"/><polygon class="cls-17" points="125.51 357.1 126.72 352.83 130.97 337.84 156.16 355.27 159.99 357.92 158.99 353.47 156.31 341.52 192.67 355.13 154.99 338.18 152.78 337.19 153.17 339.66 154.73 349.62 130.99 331.36 128.1 329.13 126.86 332.71 122.05 346.64 69.65 307.43 64.59 314.43 121.76 354.47 125.51 357.1"/><polygon class="cls-18" points="62.28 508.85 88.25 480.17 128.2 494.62 132.97 496.35 134.65 491.99 145.91 462.7 163.22 475.9 166.23 478.2 167.07 474.69 185.77 396.99 163.56 469.74 146.55 454.4 143.2 451.38 141.11 455.71 127.72 483.47 88.85 465.69 84.89 463.87 81.3 467.24 42.62 503.47 35.75 509.9 43.15 516.72 95.44 564.89 30.31 633.48 54.17 644.38 120.66 571.97 128.18 562.64 119.53 555.58 62.28 508.85"/><polygon class="cls-19" points="134.68 413.69 131.52 416.43 100.33 443.42 107.56 451.13 133.75 424.49 143.12 435.92 146.56 440.12 148.11 435.16 155.21 412.44 162.81 419.12 163.89 420.07 164.69 419 183.66 393.47 163.64 416.31 155.56 407.96 153.69 406.02 152.62 408.65 144.74 428.2 136.9 416.89 134.68 413.69"/><polygon class="cls-20" points="215.98 456.69 211.95 457.27 197.78 459.27 203.05 431.65 203.86 427.44 200.49 429.93 191.45 436.62 189.37 401.03 189.14 438.98 189.12 441.2 191.06 439.95 198.84 434.94 192.33 461.67 191.53 464.92 195 464.63 208.49 463.49 195.04 522.07 202.79 523.72 215.17 460.82 215.98 456.69"/></svg>