<svg id="Ebene_1" data-name="Ebene 1" xmlns="http://www.w3.org/2000/svg" viewBox="0 0 276.43 308.45"><defs><style>.cls-1,.cls-2,.cls-3{fill:none;}.cls-1,.cls-3,.cls-4{stroke:#570071;}.cls-1,.cls-2,.cls-3,.cls-4{stroke-miterlimit:10;stroke-width:7px;}.cls-2{stroke:#ec5c56;}.cls-2,.cls-3{stroke-linecap:round;}.cls-4{fill:#fff;}.cls-5{fill:#060527;}.cls-6{fill:#ec5c56;}</style></defs><title>Heroine_04</title><path class="cls-1" d="M27.71,3.5h221a24.21,24.21,0,0,1,24.21,24.21V170.24A134.72,134.72,0,0,1,138.22,305h0A134.72,134.72,0,0,1,3.5,170.24V27.71A24.21,24.21,0,0,1,27.71,3.5Z"/><line class="cls-2" x1="137.94" y1="75.9" x2="137.94" y2="20.29"/><line class="cls-3" x1="166.96" y1="80.64" x2="185.69" y2="47.19"/><line class="cls-3" x1="188.26" y1="92.45" x2="213.5" y2="77.41"/><line class="cls-3" x1="84.35" y1="94.52" x2="58.7" y2="80.18"/><line class="cls-3" x1="108.15" y1="82.2" x2="88.55" y2="49.25"/><path class="cls-4" d="M367.58,243.14s-50.35,54.09-92.38,54.09S179,243.14,179,243.14s54.18-54.09,96.21-54.09S367.58,243.14,367.58,243.14Z" transform="translate(-135.07 -102)"/><circle class="cls-5" cx="138.22" cy="141.14" r="41.71"/><circle class="cls-6" cx="138.22" cy="141.14" r="21.06"/><path class="cls-6" d="M268.16,348.71a128.51,128.51,0,0,1-70.34-23.76,1,1,0,0,1,.87-1.77c25.72,7.61,50.33,5.27,69.81-2.73a1,1,0,0,1,1.38.94l-.68,26.34A1,1,0,0,1,268.16,348.71Z" transform="translate(-135.07 -102)"/><path class="cls-6" d="M276.84,348.71a128.51,128.51,0,0,0,70.34-23.76,1,1,0,0,0-.87-1.77c-25.72,7.61-50.33,5.27-69.81-2.73a1,1,0,0,0-1.38.94l.68,26.34A1,1,0,0,0,276.84,348.71Z" transform="translate(-135.07 -102)"/><path class="cls-6" d="M340.15,358.26a153.39,153.39,0,0,1-123,5.38,1,1,0,0,1-.39-.27,139.43,139.43,0,0,1-22-31.57,1,1,0,0,1,1.47-1.27,133.58,133.58,0,0,0,157.93-3.91,1,1,0,0,1,1.55,1.13,139.81,139.81,0,0,1-15.12,30.15A1,1,0,0,1,340.15,358.26Z" transform="translate(-135.07 -102)"/></svg>