<svg id="Ebene_1" data-name="Ebene 1" xmlns="http://www.w3.org/2000/svg" viewBox="0 0 463.65 352.52"><defs><style>.cls-1{fill:#816452;}.cls-2{fill:#ec5c56;}.cls-3{fill:#1c447b;}.cls-4{fill:#ddd;stroke:#ec5c56;stroke-miterlimit:10;}</style></defs><title>Dance</title><path class="cls-1" d="M113,433.63l-6.34-65.15-87.66-4L25.54,81.12,478,120.77l-99.68,250.9-183.85-.3Zm-63.71-95,84.65,3.9,3.59,37,46.2-35.3,173.81.28,79.46-200L54.54,110.95Z" transform="translate(-14.35 -81.12)"/><polygon class="cls-2" points="32.81 8.4 26.92 263.91 113.08 267.88 118.04 318.93 181.88 270.15 360.71 270.44 450.28 44.98 32.81 8.4"/><path class="cls-3" d="M45.21,343.68,14.35,246.74l29.83-9.5a47.54,47.54,0,0,1,24.7-1.52,42.15,42.15,0,0,1,21,11.37,53,53,0,0,1,13.34,22.33l1.42,4.46a53.17,53.17,0,0,1,2.09,25.81A41.79,41.79,0,0,1,96.21,321a47.9,47.9,0,0,1-21,13.13Zm-5.74-87.12,20.6,64.72,9.65-3.07q11.72-3.73,15.47-13.36t-.65-23.92l-1.63-5.13Q78.22,261,69.66,255.34t-20.34-1.92Z" transform="translate(-14.35 -81.12)"/><path class="cls-3" d="M174.31,302.58a22.43,22.43,0,0,1-4-5.84q-4.51,10-15.7,13.58-10.59,3.37-19.49-.54a20.67,20.67,0,0,1-11.88-13.23q-3.65-11.45,2.89-20.28t22.56-14l8.86-2.82-1.31-4.13a12.46,12.46,0,0,0-5.11-7.17q-3.52-2.18-9-.42-4.86,1.55-6.88,4.76a8.31,8.31,0,0,0-.73,7.27l-19.24,6.13a20.28,20.28,0,0,1,.17-12.81,26.79,26.79,0,0,1,8.26-11.83,41.76,41.76,0,0,1,14.88-8.07q13.32-4.24,23.27,0t13.81,16.32l9.94,31.23q3.33,10.23,7.8,14.6l.36,1.13Zm-20.17-8.32a17.39,17.39,0,0,0,7.25-4.4,13.08,13.08,0,0,0,3.7-6.79l-3.94-12.38L154,273q-14.45,4.6-12.2,14.88l.29,1.15a8.08,8.08,0,0,0,4.42,5.12A10.31,10.31,0,0,0,154.14,294.26Z" transform="translate(-14.35 -81.12)"/><path class="cls-3" d="M200.45,214.92,203.7,223q4.65-12.11,17.63-16.25,11.45-3.65,19.19,1.3t12.13,18.28l14.82,46.54-19.24,6.13L233.55,233q-2-6.13-5.49-8t-9.74.06a13.89,13.89,0,0,0-10,10.8l16.17,50.8-19.24,6.13-22.94-72Z" transform="translate(-14.35 -81.12)"/><path class="cls-3" d="M307.49,244.56a13.24,13.24,0,0,0,7.72-5.69,10.77,10.77,0,0,0,1-8.89l18-5.74a25.9,25.9,0,0,1,.28,14.69,27.66,27.66,0,0,1-7.74,12.88,35.32,35.32,0,0,1-14,8.16q-15.45,4.92-27.5-2.06t-17.56-24.29l-.4-1.27q-5.3-16.65.4-29.39t21.14-17.66q13.52-4.3,24.12.79t14.81,17.83l-18,5.74a13.9,13.9,0,0,0-6.37-8,12.12,12.12,0,0,0-9.91-.71q-6.72,2.14-8.59,8.13t1.64,17l.64,2q3.55,11.14,8.49,14.93T307.49,244.56Z" transform="translate(-14.35 -81.12)"/><path class="cls-3" d="M386.73,236.42q-15.85,5-28.9-1.51t-18.2-22.73l-.59-1.86a45.67,45.67,0,0,1-2-20.74,32.31,32.31,0,0,1,7.69-17,35,35,0,0,1,16.07-10.21q14.78-4.71,26.24,1.91T404,188l2.5,7.86L360.59,210.5a18.76,18.76,0,0,0,9.23,9.53,17.85,17.85,0,0,0,13.24.48q11.12-3.54,14.81-13.59l12.83,7.58A30.31,30.31,0,0,1,402,227.78,40.35,40.35,0,0,1,386.73,236.42Zm-21-58.49a12.62,12.62,0,0,0-8.05,6.84q-2.33,5-1,12.55l26.77-8.52-.49-1.54q-2.18-6.38-6.62-8.83T365.69,177.93Z" transform="translate(-14.35 -81.12)"/><path class="cls-3" d="M432.32,199.25a11.32,11.32,0,0,1,8.73.37,11,11,0,0,1,4.64,14.58,12.62,12.62,0,0,1-15.58,5,10.14,10.14,0,0,1-5.27-6.31,10.25,10.25,0,0,1,.64-8.23A11.15,11.15,0,0,1,432.32,199.25ZM437,186.18l-16,5.09-23.65-66.46,20.51-6.53Z" transform="translate(-14.35 -81.12)"/><path class="cls-4" d="M52.21,350.68,21.35,253.74l29.83-9.5a47.54,47.54,0,0,1,24.7-1.52,42.15,42.15,0,0,1,21,11.37,53,53,0,0,1,13.34,22.33l1.42,4.46a53.17,53.17,0,0,1,2.09,25.81A41.79,41.79,0,0,1,103.21,328a47.9,47.9,0,0,1-21,13.13Zm-5.74-87.12,20.6,64.72,9.65-3.07q11.72-3.73,15.47-13.36t-.65-23.92l-1.63-5.13Q85.22,268,76.66,262.34t-20.34-1.92Z" transform="translate(-14.35 -81.12)"/><path class="cls-4" d="M181.31,309.58a22.43,22.43,0,0,1-4-5.84q-4.51,10-15.7,13.58-10.59,3.37-19.49-.54a20.67,20.67,0,0,1-11.88-13.23q-3.65-11.45,2.89-20.28t22.56-14l8.86-2.82-1.31-4.13a12.46,12.46,0,0,0-5.11-7.17q-3.52-2.18-9-.42-4.86,1.55-6.88,4.76a8.31,8.31,0,0,0-.73,7.27l-19.24,6.13a20.28,20.28,0,0,1,.17-12.81,26.79,26.79,0,0,1,8.26-11.83,41.76,41.76,0,0,1,14.88-8.07q13.32-4.24,23.27,0t13.81,16.32l9.94,31.23q3.33,10.23,7.8,14.6l.36,1.13Zm-20.17-8.32a17.39,17.39,0,0,0,7.25-4.4,13.08,13.08,0,0,0,3.7-6.79l-3.94-12.38L161,280q-14.45,4.6-12.2,14.88l.29,1.15a8.08,8.08,0,0,0,4.42,5.12A10.31,10.31,0,0,0,161.14,301.26Z" transform="translate(-14.35 -81.12)"/><path class="cls-4" d="M207.45,221.92,210.7,230q4.65-12.11,17.63-16.25,11.45-3.65,19.19,1.3t12.13,18.28l14.82,46.54-19.24,6.13L240.55,240q-2-6.13-5.49-8t-9.74.06a13.89,13.89,0,0,0-10,10.8l16.17,50.8-19.24,6.13-22.94-72Z" transform="translate(-14.35 -81.12)"/><path class="cls-4" d="M314.49,251.56a13.24,13.24,0,0,0,7.72-5.69,10.77,10.77,0,0,0,1-8.89l18-5.74a25.9,25.9,0,0,1,.28,14.69,27.66,27.66,0,0,1-7.74,12.88,35.32,35.32,0,0,1-14,8.16q-15.45,4.92-27.5-2.06t-17.56-24.29l-.4-1.27q-5.3-16.65.4-29.39t21.14-17.66q13.52-4.3,24.12.79t14.81,17.83l-18,5.74a13.9,13.9,0,0,0-6.37-8,12.12,12.12,0,0,0-9.91-.71q-6.72,2.14-8.59,8.13t1.64,17l.64,2q3.55,11.14,8.49,14.93T314.49,251.56Z" transform="translate(-14.35 -81.12)"/><path class="cls-4" d="M393.73,243.42q-15.85,5-28.9-1.51t-18.2-22.73l-.59-1.86a45.67,45.67,0,0,1-2-20.74,32.31,32.31,0,0,1,7.69-17,35,35,0,0,1,16.07-10.21q14.78-4.71,26.24,1.91T411,195l2.5,7.86L367.59,217.5a18.76,18.76,0,0,0,9.23,9.53,17.85,17.85,0,0,0,13.24.48q11.12-3.54,14.81-13.59l12.83,7.58A30.31,30.31,0,0,1,409,234.78,40.35,40.35,0,0,1,393.73,243.42Zm-21-58.49a12.62,12.62,0,0,0-8.05,6.84q-2.33,5-1,12.55l26.77-8.52-.49-1.54q-2.18-6.38-6.62-8.83T372.69,184.93Z" transform="translate(-14.35 -81.12)"/><path class="cls-4" d="M439.32,206.25a11.32,11.32,0,0,1,8.73.37,11,11,0,0,1,4.64,14.58,12.62,12.62,0,0,1-15.58,5,10.14,10.14,0,0,1-5.27-6.31,10.25,10.25,0,0,1,.64-8.23A11.15,11.15,0,0,1,439.32,206.25ZM444,193.18l-16,5.09-23.65-66.46,20.51-6.53Z" transform="translate(-14.35 -81.12)"/></svg>