<svg id="Ebene_1" data-name="Ebene 1" xmlns="http://www.w3.org/2000/svg" viewBox="0 0 287.65 297.17"><defs><style>.cls-1,.cls-3{fill:none;}.cls-1,.cls-5{stroke:#570071;stroke-linecap:round;stroke-miterlimit:10;stroke-width:7px;}.cls-2{fill:#ec5c56;}.cls-4{fill:#060527;}.cls-5{fill:#fff;}</style></defs><title>Robot_02</title><path class="cls-1" d="M269.81,303.9V269.15h81.77c5.73,0,10.36-4.25,10.36-9.51V105.51c0-5.26-4.63-9.51-10.36-9.51H127.81c-5.73,0-10.36,4.25-10.36,9.51V259.63c0,5.26,4.63,9.51,10.36,9.51h92.27V303.9h-116l39.37,82.26,193.38-.63,43.51-81.63Z" transform="translate(-98.5 -92.5)"/><path class="cls-2" d="M227.91,311.78h28.54a9.5,9.5,0,0,1,9.51,9.51v14a9.5,9.5,0,0,1-9.51,9.51H227.91a9.5,9.5,0,0,1-9.51-9.51v-14A9.5,9.5,0,0,1,227.91,311.78Z" transform="translate(-98.5 -92.5)"/><path class="cls-2" d="M265.08,355.35s5.26,26.7,5.26,27.34L214,383c-.06-.57,5.26-27.59,5.26-27.59a6.37,6.37,0,0,1,6.22-5.07h33.36A6.09,6.09,0,0,1,265.08,355.35Z" transform="translate(-98.5 -92.5)"/><line class="cls-3" x1="132.74" y1="92.8" x2="154.63" y2="70.86"/><circle class="cls-4" cx="100.29" cy="71.64" r="40.65"/><circle class="cls-2" cx="100.29" cy="71.64" r="20.53"/><circle class="cls-4" cx="187.08" cy="71.64" r="40.65"/><circle class="cls-2" cx="187.08" cy="71.64" r="20.53"/><rect class="cls-5" x="72.84" y="127.17" width="141.7" height="30.79" rx="4" ry="4"/></svg>