<svg id="Ebene_1" data-name="Ebene 1" xmlns="http://www.w3.org/2000/svg" xmlns:xlink="http://www.w3.org/1999/xlink" viewBox="0 0 433 650.75"><defs><style>.cls-1{fill:#ddd;}.cls-2{fill:url(#Unbenannter_Verlauf_4);}.cls-3{fill:url(#Unbenannter_Verlauf_6);}.cls-4{fill:url(#Unbenannter_Verlauf_6-2);}.cls-5{fill:url(#Unbenannter_Verlauf_6-3);}.cls-6{fill:#ec5c56;}.cls-7,.cls-8{opacity:0.5;}.cls-7{fill:url(#Unbenannter_Verlauf_4-2);}.cls-9{fill:#1c447b;}</style><linearGradient id="Unbenannter_Verlauf_4" x1="48.59" y1="136.5" x2="344.24" y2="136.5" gradientUnits="userSpaceOnUse"><stop offset="0" stop-color="#ddd"/><stop offset="1" stop-color="#EC5C56"/></linearGradient><linearGradient id="Unbenannter_Verlauf_6" x1="166" y1="367.75" x2="241" y2="367.75" gradientUnits="userSpaceOnUse"><stop offset="0" stop-color="#ddd"/><stop offset="1" stop-color="#816452"/></linearGradient><linearGradient id="Unbenannter_Verlauf_6-2" x1="-2504.5" y1="-977" x2="-2262.5" y2="-977" gradientTransform="translate(1230.5 -1806.5) rotate(-90)" xlink:href="#Unbenannter_Verlauf_6"/><linearGradient id="Unbenannter_Verlauf_6-3" x1="257.25" y1="140.75" x2="257.25" y2="106.25" xlink:href="#Unbenannter_Verlauf_6"/><linearGradient id="Unbenannter_Verlauf_4-2" x1="123" y1="394.75" x2="433" y2="394.75" xlink:href="#Unbenannter_Verlauf_4"/></defs><title>Robot</title><rect class="cls-1" x="19.41" width="354" height="273" rx="15" ry="15"/><rect class="cls-2" x="48.59" y="22.5" width="295.65" height="228" rx="15" ry="15"/><rect class="cls-1" x="168" y="269.75" width="72" height="135"/><polygon class="cls-1" points="339 647.75 59 648.75 0 327.75 400 327.75 339 647.75"/><rect class="cls-3" x="166" y="341.75" width="75" height="52" rx="15" ry="15"/><path class="cls-4" d="M289.62,464l8.11,40.3a10,10,0,0,1,.17,2.75l-19.17,181.7a10,10,0,0,1-10,9.22h-30.5a10,10,0,0,1-10-9.22L209.11,507.57a10,10,0,0,1,.16-2.73L217.4,464a10,10,0,0,1,9.81-8h52.61A10,10,0,0,1,289.62,464Z" transform="translate(-50 -47.25)"/><line class="cls-5" x1="240" y1="140.75" x2="274.5" y2="106.25"/><path class="cls-6" d="M321,163h33a33,33,0,0,1-66,1.15Z" transform="translate(-50 -47.25)"/><path class="cls-6" d="M184.89,163h33a33,33,0,0,1-66,1.15Z" transform="translate(-50 -47.25)"/><polygon class="cls-7" points="123 192.75 433 596.75 433 292.75 288 192.75 123 192.75"/><g class="cls-8"><path class="cls-9" d="M293.5,309.5l-4-3.91a.93.93,0,0,1,.06-1.42l10.9-9a.93.93,0,0,0,.06-1.42l-9.33-9a1.22,1.22,0,0,0-1.59-.06l-10.9,9a1.22,1.22,0,0,1-1.59-.06l-4-3.91a.93.93,0,0,1,.06-1.42l27.65-22.77a1.22,1.22,0,0,1,1.59.06l4,3.91a.93.93,0,0,1-.06,1.42l-10.22,8.42a.93.93,0,0,0-.06,1.42l9.33,9a1.22,1.22,0,0,0,1.59.06l10.22-8.42a1.22,1.22,0,0,1,1.59.06l4,3.91a.93.93,0,0,1-.06,1.42l-27.65,22.77A1.22,1.22,0,0,1,293.5,309.5Z" transform="translate(-50 -47.25)"/><path class="cls-9" d="M310.74,325.2l.07-.12a1,1,0,0,0-.84-1.47,10.1,10.1,0,0,1-5.57-2.84,8.93,8.93,0,0,1-3-6.26,6.89,6.89,0,0,1,2.73-5.72,9,9,0,0,1,7.68-2.08q4.22.77,8.71,5.08l2.47,2.39,1.25-1a4.26,4.26,0,0,0,1.7-2.68,3.5,3.5,0,0,0-1.35-2.93,4.87,4.87,0,0,0-2.83-1.48,3.38,3.38,0,0,0-2,.35,1.24,1.24,0,0,1-1.42-.17l-3.85-3.73a1,1,0,0,1,.2-1.53,8.75,8.75,0,0,1,3.55-1.12,11.61,11.61,0,0,1,5.57.87,16.39,16.39,0,0,1,5.33,3.52q3.71,3.59,3.87,7.37t-3.5,6.79l-9.44,7.77a12.84,12.84,0,0,0-3.89,4.63l-.34.28-4.92-4.76A.93.93,0,0,1,310.74,325.2Zm-.72-7a6.92,6.92,0,0,0,2.76,1.65,5.8,5.8,0,0,0,2.71.23,1.18,1.18,0,0,0,.55-.26l2.68-2.21a.93.93,0,0,0,.06-1.42l-1.24-1.2q-4-3.9-7.31-1.66l-.36.26a2.7,2.7,0,0,0-1.09,2.16A3.44,3.44,0,0,0,310,318.24Z" transform="translate(-50 -47.25)"/><path class="cls-9" d="M345.72,321.82a1,1,0,0,0,.57,1.72,10.08,10.08,0,0,1,5.64,2.78q6.53,6.32-1.6,13.19l-13.12,10.8a1.22,1.22,0,0,1-1.59-.06l-3.84-3.72a.93.93,0,0,1,.06-1.42l13-10.67a4.83,4.83,0,0,0,2-3q.15-1.46-1.57-3.13a5.76,5.76,0,0,0-5.05-1.74,1.2,1.2,0,0,0-.58.26l-14.4,11.86a1.22,1.22,0,0,1-1.59-.06l-3.84-3.72a.93.93,0,0,1,.06-1.42l29.26-24.09a1.22,1.22,0,0,1,1.59.06l3.84,3.72a.93.93,0,0,1-.06,1.42Z" transform="translate(-50 -47.25)"/><path class="cls-9" d="M352.4,365.51l.07-.12a1,1,0,0,0-.84-1.47,10.1,10.1,0,0,1-5.57-2.84,8.93,8.93,0,0,1-3-6.26,6.89,6.89,0,0,1,2.73-5.72,9,9,0,0,1,7.68-2.08q4.22.77,8.71,5.08l2.47,2.39,1.25-1a4.26,4.26,0,0,0,1.7-2.68,3.5,3.5,0,0,0-1.35-2.93,4.87,4.87,0,0,0-2.83-1.48,3.38,3.38,0,0,0-2,.35,1.24,1.24,0,0,1-1.42-.17l-3.85-3.73a1,1,0,0,1,.2-1.53,8.75,8.75,0,0,1,3.55-1.12,11.61,11.61,0,0,1,5.57.87,16.39,16.39,0,0,1,5.33,3.52q3.71,3.59,3.87,7.37t-3.5,6.79l-9.44,7.77a12.84,12.84,0,0,0-3.89,4.63l-.34.28-4.92-4.76A.93.93,0,0,1,352.4,365.51Zm-.72-7a6.92,6.92,0,0,0,2.76,1.65,5.8,5.8,0,0,0,2.71.23,1.18,1.18,0,0,0,.55-.26l2.68-2.21a.93.93,0,0,0,.06-1.42l-1.24-1.2q-4-3.9-7.31-1.66l-.36.26a2.7,2.7,0,0,0-1.09,2.16A3.44,3.44,0,0,0,351.67,358.55Z" transform="translate(-50 -47.25)"/><path class="cls-9" d="M387.38,362.14a1,1,0,0,0,.57,1.72,10.08,10.08,0,0,1,5.64,2.78q6.53,6.32-1.6,13.19l-13.12,10.8a1.22,1.22,0,0,1-1.59-.06l-3.84-3.72a.93.93,0,0,1,.06-1.42l13-10.67a4.83,4.83,0,0,0,2-3q.15-1.46-1.57-3.13a5.76,5.76,0,0,0-5.05-1.74,1.2,1.2,0,0,0-.58.26L366.87,379a1.22,1.22,0,0,1-1.59-.06l-3.84-3.72a.93.93,0,0,1,.06-1.42l29.26-24.09a1.22,1.22,0,0,1,1.59.06l3.84,3.72a.93.93,0,0,1-.06,1.42Z" transform="translate(-50 -47.25)"/><path class="cls-9" d="M394.05,405.82l.07-.12a1,1,0,0,0-.84-1.47,10.1,10.1,0,0,1-5.57-2.84,8.93,8.93,0,0,1-3-6.26,6.89,6.89,0,0,1,2.73-5.72,9,9,0,0,1,7.68-2.08q4.22.77,8.71,5.08l2.47,2.39,1.25-1a4.26,4.26,0,0,0,1.7-2.68,3.5,3.5,0,0,0-1.35-2.93,4.87,4.87,0,0,0-2.83-1.48,3.38,3.38,0,0,0-2,.35,1.24,1.24,0,0,1-1.42-.17l-3.85-3.73a1,1,0,0,1,.2-1.53,8.75,8.75,0,0,1,3.55-1.12,11.61,11.61,0,0,1,5.57.87,16.39,16.39,0,0,1,5.33,3.52q3.71,3.59,3.87,7.37t-3.5,6.79l-9.44,7.77a12.84,12.84,0,0,0-3.89,4.63l-.34.28L394.22,407A.93.93,0,0,1,394.05,405.82Zm-.72-7a6.92,6.92,0,0,0,2.76,1.65,5.8,5.8,0,0,0,2.71.23,1.18,1.18,0,0,0,.55-.26l2.68-2.21a.93.93,0,0,0,.06-1.42l-1.24-1.2q-4-3.9-7.31-1.66l-.36.26a2.7,2.7,0,0,0-1.09,2.16A3.44,3.44,0,0,0,393.33,398.87Z" transform="translate(-50 -47.25)"/><path class="cls-9" d="M429,402.45a1,1,0,0,0,.57,1.72,10.08,10.08,0,0,1,5.64,2.78q6.53,6.32-1.6,13.19l-13.12,10.8a1.22,1.22,0,0,1-1.59-.06l-3.84-3.72a.93.93,0,0,1,.06-1.42l13-10.67a4.83,4.83,0,0,0,2-3q.15-1.46-1.57-3.13a5.76,5.76,0,0,0-5.05-1.74,1.2,1.2,0,0,0-.58.26l-14.4,11.86a1.22,1.22,0,0,1-1.59-.06l-3.84-3.72a.93.93,0,0,1,.06-1.42l29.26-24.09a1.22,1.22,0,0,1,1.59.06l3.84,3.72a.93.93,0,0,1-.06,1.42Z" transform="translate(-50 -47.25)"/><path class="cls-9" d="M435.7,446.14l.07-.12a1,1,0,0,0-.84-1.47,10.1,10.1,0,0,1-5.57-2.84,8.93,8.93,0,0,1-3-6.26,6.89,6.89,0,0,1,2.73-5.72,9,9,0,0,1,7.68-2.08q4.22.77,8.71,5.08l2.47,2.39,1.25-1a4.26,4.26,0,0,0,1.7-2.68,3.5,3.5,0,0,0-1.35-2.93,4.87,4.87,0,0,0-2.83-1.48,3.38,3.38,0,0,0-2,.35,1.24,1.24,0,0,1-1.42-.17l-3.85-3.73a1,1,0,0,1,.2-1.53,8.75,8.75,0,0,1,3.55-1.12,11.61,11.61,0,0,1,5.57.87,16.39,16.39,0,0,1,5.33,3.52q3.71,3.59,3.87,7.37t-3.5,6.79L445,447.14a12.84,12.84,0,0,0-3.89,4.63l-.34.28-4.92-4.76A.93.93,0,0,1,435.7,446.14Zm-.72-7a6.92,6.92,0,0,0,2.76,1.65,5.8,5.8,0,0,0,2.71.23,1.18,1.18,0,0,0,.55-.26l2.68-2.21a.93.93,0,0,0,.06-1.42l-1.24-1.2q-4-3.9-7.31-1.66l-.36.26a2.7,2.7,0,0,0-1.09,2.16A3.44,3.44,0,0,0,435,439.18Z" transform="translate(-50 -47.25)"/></g></svg>