<svg id="Ebene_1" data-name="Ebene 1" xmlns="http://www.w3.org/2000/svg" xmlns:xlink="http://www.w3.org/1999/xlink" viewBox="0 0 348 389"><defs><style>.cls-1,.cls-2,.cls-3,.cls-4,.cls-6,.cls-7,.cls-8{stroke:#ddd;stroke-miterlimit:10;stroke-width:3px;}.cls-1{fill:url(#Unbenannter_Verlauf_8);}.cls-2{fill:none;}.cls-3{fill:url(#Unbenannter_Verlauf_8-2);}.cls-4{fill:url(#Unbenannter_Verlauf_8-3);}.cls-5,.cls-8{fill:#ec5c56;}.cls-6{fill:url(#Unbenannter_Verlauf_8-4);}.cls-7{fill:url(#Unbenannter_Verlauf_8-5);}</style><linearGradient id="Unbenannter_Verlauf_8" x1="174" y1="387.5" x2="174" y2="1.5" gradientUnits="userSpaceOnUse"><stop offset="0" stop-color="#ec5c56"/><stop offset="1" stop-color="#ddd"/></linearGradient><linearGradient id="Unbenannter_Verlauf_8-2" x1="132.32" y1="258.74" x2="373.81" y2="258.74" xlink:href="#Unbenannter_Verlauf_8"/><linearGradient id="Unbenannter_Verlauf_8-3" x1="120.6" y1="177.74" x2="227.4" y2="177.74" xlink:href="#Unbenannter_Verlauf_8"/><linearGradient id="Unbenannter_Verlauf_8-4" x1="170" y1="291" x2="97" y2="291" xlink:href="#Unbenannter_Verlauf_8"/><linearGradient id="Unbenannter_Verlauf_8-5" x1="176" y1="291" x2="249" y2="291" xlink:href="#Unbenannter_Verlauf_8"/></defs><title>Heroine</title><path class="cls-1" d="M32.5,1.5h283a31,31,0,0,1,31,31V215A172.5,172.5,0,0,1,174,387.5h0A172.5,172.5,0,0,1,1.5,215V32.5a31,31,0,0,1,31-31Z"/><line class="cls-2" x1="173.65" y1="94.21" x2="173.65" y2="23"/><line class="cls-2" x1="210.8" y1="100.27" x2="234.79" y2="57.44"/><line class="cls-2" x1="238.08" y1="115.4" x2="270.4" y2="96.14"/><line class="cls-2" x1="105.02" y1="118.05" x2="72.19" y2="99.68"/><line class="cls-2" x1="135.5" y1="102.28" x2="110.4" y2="60.08"/><path class="cls-3" d="M373.81,258.74S309.34,328,255.52,328s-123.19-69.26-123.19-69.26,69.37-69.26,123.19-69.26S373.81,258.74,373.81,258.74Z" transform="translate(-79.07 -81)"/><circle class="cls-4" cx="174" cy="177.74" r="53.4"/><circle class="cls-5" cx="174" cy="177.74" r="26.97"/><polygon class="cls-6" points="170 309.5 97 309.5 170 272.5 170 309.5"/><polygon class="cls-7" points="176 309.5 249 309.5 176 272.5 176 309.5"/><polygon class="cls-8" points="226 340.5 130 340.5 100 315.5 251 315.5 226 340.5"/></svg>