<svg id="Ebene_1" data-name="Ebene 1" xmlns="http://www.w3.org/2000/svg" viewBox="0 0 319.78 270.21"><defs><style>.cls-1{fill:#816452;}.cls-2{fill:#ec5c56;}.cls-3{fill:#ddd;}</style></defs><title>Go</title><path class="cls-1" d="M229.66,303.23c-28.54,0-98.86-13.61-121.89-54.05-11.83-20.78-9.8-44.86,6-71.56,32.78-55.23,119.54-84.13,188.3-84.13,59.71,0,102.12,20.58,113.44,55,9.81,29.82,3.11,61.89-18.35,88.74l19.89,62.86-64.52-26.35c-32,17.54-73.46,27.7-120.34,29.41C231.43,303.22,230.58,303.23,229.66,303.23Zm72.46-191.13c-63.49,0-143.06,25.77-172.29,75-12.35,20.81-14.27,38.1-5.88,52.85,17.74,31.17,78.59,44.65,105.71,44.65.68,0,1.31,0,1.9,0,45.82-1.68,85.83-11.77,115.68-29.17l4-2.31,36.17,14.77-11-34.83,3.44-3.94c19.7-22.57,26.29-49.81,18.09-74.76C389.18,127.9,353.39,112.11,302.12,112.11Z" transform="translate(-100.19 -33.03)"/><path class="cls-2" d="M391.27,230.75c22.39-25.65,29-56.11,19.92-83.78C385.4,68.5,178.81,89.41,126.29,177.9S205,290.57,236.37,289.42c50.95-1.87,90.91-13.46,120-30.43l50.3,20.55Z" transform="translate(-100.19 -33.03)"/><path class="cls-1" d="M260.22,195.23q-2.77,10.43-12.3,19.92a81.93,81.93,0,0,1-23.47,16q-14.64,6.82-28.65,5.57a47,47,0,0,1-25.68-10.61q-11.67-9.36-19.47-25.71l-3.57-7.67q-7.87-16.88-7.93-31.88a46.45,46.45,0,0,1,7.61-26.54q7.68-11.54,22.08-18.25,20.06-9.35,35.82-5T231,132.58l-22.61,10.54q-6.06-9-13.46-11t-16.69,2.31q-11.85,5.52-13.89,17.31t6.07,29.41l3.36,7.2Q182.06,206.1,193,212t24-.14q13.09-6.1,16.06-14.27L224,178.17,202.86,188l-8-17.11,44.37-20.67Z" transform="translate(-100.19 -33.03)"/><path class="cls-1" d="M260.84,160.35a54.82,54.82,0,0,1-5.55-24.46,38.78,38.78,0,0,1,6.79-21.54,44.49,44.49,0,0,1,18.46-15.1q17-7.9,32.52-2.52t25.1,22.61L341,125q9,19.28,3.65,36t-23.45,25.11q-18.12,8.44-34.34,1.86t-25.52-26.56ZM284,151.51q5.57,11.94,13,16.17t15.8.33q8.13-3.79,9.79-12.16t-4.73-22.09q-5.46-11.71-13-16t-15.86-.45q-8.21,3.82-9.72,12.32T284,151.51Z" transform="translate(-100.19 -33.03)"/><path class="cls-1" d="M376.92,131a13.84,13.84,0,0,1,10.65-.91,13.41,13.41,0,0,1,7.9,17,15.44,15.44,0,0,1-18.12,8.44,12.4,12.4,0,0,1-7.38-6.84,12.54,12.54,0,0,1-.5-10.09A13.63,13.63,0,0,1,376.92,131Zm3.59-16.56L361.93,123l-39-76.91L346.74,35Z" transform="translate(-100.19 -33.03)"/><path class="cls-3" d="M249.22,193.23q-2.77,10.43-12.3,19.92a81.93,81.93,0,0,1-23.47,16q-14.64,6.82-28.65,5.57a47,47,0,0,1-25.68-10.61q-11.67-9.36-19.47-25.71l-3.57-7.67q-7.87-16.88-7.93-31.88a46.45,46.45,0,0,1,7.61-26.54q7.68-11.54,22.08-18.25,20.06-9.35,35.82-5T220,130.58l-22.61,10.54q-6.06-9-13.46-11t-16.69,2.31q-11.85,5.52-13.89,17.31t6.07,29.41l3.36,7.2Q171.06,204.1,182,210t24-.14q13.09-6.1,16.06-14.27L213,176.17,191.86,186l-8-17.11,44.37-20.67Z" transform="translate(-100.19 -33.03)"/><path class="cls-3" d="M249.84,158.35a54.82,54.82,0,0,1-5.55-24.46,38.78,38.78,0,0,1,6.79-21.54,44.49,44.49,0,0,1,18.46-15.1q17-7.9,32.52-2.52t25.1,22.61L330,123q9,19.28,3.65,36t-23.45,25.11q-18.12,8.44-34.34,1.86t-25.52-26.56ZM273,149.51q5.57,11.94,13,16.17t15.8.33q8.13-3.79,9.79-12.16t-4.73-22.09q-5.46-11.71-13-16t-15.86-.45q-8.21,3.82-9.72,12.32T273,149.51Z" transform="translate(-100.19 -33.03)"/><path class="cls-3" d="M365.92,129a13.84,13.84,0,0,1,10.65-.91,13.41,13.41,0,0,1,7.9,17,15.44,15.44,0,0,1-18.12,8.44,12.4,12.4,0,0,1-7.38-6.84,12.54,12.54,0,0,1-.5-10.09A13.63,13.63,0,0,1,365.92,129Zm3.59-16.56L350.93,121l-39-76.91L335.74,33Z" transform="translate(-100.19 -33.03)"/></svg>