
<svg id="Ebene_1" data-name="Ebene 1" xmlns="http://www.w3.org/2000/svg" viewBox="0 0 487.17 396.94"><defs><style>.cls-1{fill:#816452;}.cls-2{fill:#fff;}.cls-3{fill:#ddd;}.cls-3,.cls-4{stroke:#ec5c56;stroke-miterlimit:10;}.cls-4{fill:#ec5c56;}</style></defs><title>Try</title><path class="cls-1" d="M243.62,425.33l-7.46-34.89c-9.21-43-17.36-42.16-20.85-41.78-11.52,1.26-32.37,17.48-53.19,34.81l-30,25,11.62-37.3c8.41-27,5.46-36.12,3-39.17-4-4.81-15.51-6.21-34.33-4.16-5.32.58-11.23,1.43-18.08,2.6L55.73,337l28.78-26.45C111.06,286.18,115.2,274.51,114,269S104.37,254.79,71,244L30.59,230.87,72,221.71c33.84-7.48,42.86-12.66,45.23-15-1.2-2.32-6.43-9-29.28-23.08L39.06,153.49l56.74,8.86c25.83,4,42,5.32,52.55,4.18,6.52-.71,9.54-2.3,10.19-3.55,1.31-2.52,2.25-12.22-17.28-47.72L113.52,64.82l45,35.84c26.75,21.29,41.57,24.75,49.3,23.91,4-.43,16-1.75,20.94-38.55l4.65-35L250.36,82c6.84,12.52,15.9,26.75,25.29,25.73,5.53-.6,17.7-6.43,37-38.65l24.43-40.7-3,47.37c-1.89,29.65,2,40,5.61,43.42.78.75,2.86,2.74,10.08,2,13-1.42,33.32-11.17,47.48-18.38l38.6-19.65-23.7,36.25c-11.45,17.51-12.17,24-12.12,25.63,1.44.8,7.5,3,28.69.65q2.29-.25,4.71-.55l35.13-4.42L442.8,164.92c-18.7,17.6-27.49,30.55-26.15,38.5,1.25,7.34,11.83,15.5,31.46,24.25L478,241l-31.61,8.38c-32.93,8.74-49.48,17.24-53.64,27.58-3.91,9.7,1.09,25.47,15.75,49.61l15.9,26.19-29.23-9.2c-32.15-10.12-57.5-16.43-76.67-14.34C298,331.45,279.84,343.1,258,392.67ZM212.8,325.71c20.2-2.2,31.23,13,37.81,30.2C269.06,324,289.09,309.2,316,306.27c17.16-1.87,36.33,1.18,59.63,7.45-8.09-18.67-9.31-32.93-4.28-45.4,6.24-15.5,21.3-25.33,42.62-33.14-10-7.18-18.07-16.22-20.05-27.91-2.21-13,3.78-25.78,13-37.67-11.64-.73-21.4-4-26.61-12.5-3.66-6-4-12.85-2.27-20.08-10.25,4-18.5,6.25-25.7,7-11.88,1.3-21.47-1.47-28.53-8.21-6.11-5.84-10-14.14-11.88-26-11.43,12.83-22.46,19.57-33.73,20.8-13.95,1.52-24.71-5.67-32.8-14.68-7.13,19.18-18.84,29.75-35,31.51-9.43,1-20-1.15-31.8-6.62,4.77,14.37,4.73,24.52.46,32.74-7,13.54-22.94,15.27-28.16,15.84a114.66,114.66,0,0,1-17.38.38c5.5,6.69,8.08,13.45,6.86,20.67-1.91,11.34-11.93,18.64-29.64,24.77,13,7.14,23.12,16.3,25.85,28.8,2.93,13.42-3.54,27-13.72,39.84,15.72-.54,32,1.75,41.65,13.42,5.84,7.09,8.44,16.32,7.82,28.57C188.48,334,201.38,327,212.8,325.71Z" transform="translate(-3.26 -28.39)"/><path class="cls-2" d="M252.35,381.92c-14.53-68-32.79-63.33-92.71-13.42,18-57.74-4-65.51-62.41-55.53,48.72-44.77,45.28-65.65-17.81-86.1C143,212.8,153,200.9,98.93,167.64c79.24,12.38,94.46,3.39,57.35-64.06,67.57,53.77,83.9,15.15,88.86-22.15,15.31,28,38.8,60,82.36-12.52-4.36,68.36,18.52,69.27,79.92,38-26.68,40.8-14.85,49.43,32.38,43.49-40.74,38.35-41.72,59.3,8.53,81.69-65.64,17.41-80,36.26-44.8,94.34C320,300.15,287.82,301.38,252.35,381.92Z" transform="translate(-3.26 -28.39)"/><path class="cls-3" d="M72.94,261.58,51.16,271,76.71,330.2l-14.65,6.32L36.51,277.29,15,286.56,9.91,274.69l57.91-25Z" transform="translate(-3.26 -28.39)"/><path class="cls-3" d="M115.34,266.58a41.75,41.75,0,0,0-5.25,1.8q-8,3.45-8.16,9.95l14.91,34.57L102.73,319,79.94,266.15l13.33-5.75,3.11,6.13q1.11-9.11,8.63-12.35a16.1,16.1,0,0,1,4.67-1.26Z" transform="translate(-3.26 -28.39)"/><path class="cls-3" d="M151.19,274.39l-4.41-37.07,15.14-6.53L167,301l0,3.29q-.27,12.39-11.16,17.09a24.18,24.18,0,0,1-6.65,1.77l-4.61-10.69,2.17-.88q4-1.73,5.45-3.8a8.73,8.73,0,0,0,1.35-5.39l-.21-5.06-41.35-45,15.18-6.55Z" transform="translate(-3.26 -28.39)"/><path class="cls-3" d="M249.92,238.12,224.24,249.2,225.67,266l-15.58,6.72-4.2-82.5,13.57-5.85,57.27,59.61-15.58,6.72Zm-26.84-2.49L240.85,228l-20.41-22.76Z" transform="translate(-3.26 -28.39)"/><path class="cls-3" d="M268.85,215.54q-5.24-12.16-2.66-22.07t12.4-14.15q8.69-3.75,16.09.12l-1.56-5.23,12.79-5.52,22,51.07A24.59,24.59,0,0,1,330,233.18a22,22,0,0,1-5.49,11.63,33.93,33.93,0,0,1-12.22,8.46,31.55,31.55,0,0,1-12.33,2.57A21.89,21.89,0,0,1,289,253.46l2.54-11.29a18,18,0,0,0,15.34.39q5.61-2.42,7.44-6.77t-.55-9.87l-1.22-2.83a17.77,17.77,0,0,1-10.46,11.06,20.36,20.36,0,0,1-18.62-.8q-9.09-4.91-14.4-17.21Zm14.56-5q3.1,7.19,7.74,10a10,10,0,0,0,9.67.67q6.45-2.78,7.14-8.82l-9.6-22.25q-4.92-3.62-11.22-.9a10,10,0,0,0-6.19,7.6Q279.85,202.24,283.41,210.5Z" transform="translate(-3.26 -28.39)"/><path class="cls-3" d="M370.15,203.64a17.07,17.07,0,0,1-3.46-4.13A18.59,18.59,0,0,1,355.82,211q-7.76,3.35-14.8,1.06a15.73,15.73,0,0,1-10-9.13q-3.62-8.4.67-15.57t16-12.3l6.49-2.8-1.31-3a9.48,9.48,0,0,0-4.41-5q-2.83-1.39-6.88.36a9.16,9.16,0,0,0-4.85,4.12,6.32,6.32,0,0,0,0,5.56l-14.11,6.09a15.44,15.44,0,0,1-.83-9.72A20.39,20.39,0,0,1,327.2,161a31.78,31.78,0,0,1,10.66-7.23q9.77-4.21,17.62-1.78t11.69,11.32l9.88,22.9q3.29,7.5,7,10.47l.36.83Zm-15.9-4.78a13.24,13.24,0,0,0,5.16-3.88,10,10,0,0,0,2.3-5.42l-3.92-9.08-5.27,2.27q-10.6,4.57-8.12,12.19l.31.85a6.15,6.15,0,0,0,3.73,3.55A7.85,7.85,0,0,0,354.25,198.86Z" transform="translate(-3.26 -28.39)"/><path class="cls-3" d="M364.37,127.26a7.57,7.57,0,0,1-.13-6.14,10,10,0,0,1,11.55-5,8.12,8.12,0,0,1,4.5,10.51,9.86,9.86,0,0,1-11.47,4.95A7.54,7.54,0,0,1,364.37,127.26Zm43.67,60-14.16,6.11-22.79-52.83,14.16-6.11Z" transform="translate(-3.26 -28.39)"/><path class="cls-3" d="M409.86,123.86l3.07,5.91q2.61-9.52,12.13-13.63,8.4-3.62,14.63-.46t10.56,12.93L465,162.74l-14.11,6.09L436.29,135q-1.94-4.49-4.76-5.68t-7.37.77a10.57,10.57,0,0,0-6.75,8.93l16.07,37.25-14.11,6.09-22.79-52.83Z" transform="translate(-3.26 -28.39)"/><path class="cls-3" d="M478.07,140.36a8.61,8.61,0,0,1,6.64-.37,8.35,8.35,0,0,1,4.61,10.69,9.61,9.61,0,0,1-11.43,4.93,7.72,7.72,0,0,1-4.47-4.38,7.8,7.8,0,0,1-.13-6.28A8.48,8.48,0,0,1,478.07,140.36Zm2.53-10.24-11.72,5.05L446,86.62l15-6.49Z" transform="translate(-3.26 -28.39)"/><path class="cls-4" d="M66.94,267.58,45.16,277,70.71,336.2l-14.65,6.32L30.51,283.29,9,292.56,3.91,280.69l57.91-25Z" transform="translate(-3.26 -28.39)"/><path class="cls-4" d="M109.34,272.58a41.75,41.75,0,0,0-5.25,1.8q-8,3.45-8.16,9.95l14.91,34.57L96.73,325,73.94,272.15l13.33-5.75,3.11,6.13q1.11-9.11,8.63-12.35a16.1,16.1,0,0,1,4.67-1.26Z" transform="translate(-3.26 -28.39)"/><path class="cls-4" d="M145.19,280.39l-4.41-37.07,15.14-6.53L161,307l0,3.29q-.27,12.39-11.16,17.09a24.18,24.18,0,0,1-6.65,1.77l-4.61-10.69,2.17-.88q4-1.73,5.45-3.8a8.73,8.73,0,0,0,1.35-5.39l-.21-5.06-41.35-45,15.18-6.55Z" transform="translate(-3.26 -28.39)"/><path class="cls-4" d="M243.92,244.12,218.24,255.2,219.67,272l-15.58,6.72-4.2-82.5,13.57-5.85,57.27,59.61-15.58,6.72Zm-26.84-2.49L234.85,234l-20.41-22.76Z" transform="translate(-3.26 -28.39)"/><path class="cls-4" d="M262.85,221.54q-5.24-12.16-2.66-22.07t12.4-14.15q8.69-3.75,16.09.12l-1.56-5.23,12.79-5.52,22,51.07A24.59,24.59,0,0,1,324,239.18a22,22,0,0,1-5.49,11.63,33.93,33.93,0,0,1-12.22,8.46,31.55,31.55,0,0,1-12.33,2.57A21.89,21.89,0,0,1,283,259.46l2.54-11.29a18,18,0,0,0,15.34.39q5.61-2.42,7.44-6.77t-.55-9.87l-1.22-2.83a17.77,17.77,0,0,1-10.46,11.06,20.36,20.36,0,0,1-18.62-.8q-9.09-4.91-14.4-17.21Zm14.56-5q3.1,7.19,7.74,10a10,10,0,0,0,9.67.67q6.45-2.78,7.14-8.82l-9.6-22.25q-4.92-3.62-11.22-.9a10,10,0,0,0-6.19,7.6Q273.85,208.24,277.41,216.5Z" transform="translate(-3.26 -28.39)"/><path class="cls-4" d="M364.15,209.64a17.07,17.07,0,0,1-3.46-4.13A18.59,18.59,0,0,1,349.82,217q-7.76,3.35-14.8,1.06a15.73,15.73,0,0,1-10-9.13q-3.62-8.4.67-15.57t16-12.3l6.49-2.8-1.31-3a9.48,9.48,0,0,0-4.41-5q-2.83-1.39-6.88.36a9.16,9.16,0,0,0-4.85,4.12,6.32,6.32,0,0,0,0,5.56l-14.11,6.09a15.44,15.44,0,0,1-.83-9.72A20.39,20.39,0,0,1,321.2,167a31.78,31.78,0,0,1,10.66-7.23q9.77-4.21,17.62-1.78t11.69,11.32l9.88,22.9q3.29,7.5,7,10.47l.36.83Zm-15.9-4.78a13.24,13.24,0,0,0,5.16-3.88,10,10,0,0,0,2.3-5.42l-3.92-9.08-5.27,2.27q-10.6,4.57-8.12,12.19l.31.85a6.15,6.15,0,0,0,3.73,3.55A7.85,7.85,0,0,0,348.25,204.86Z" transform="translate(-3.26 -28.39)"/><path class="cls-4" d="M358.37,133.26a7.57,7.57,0,0,1-.13-6.14,10,10,0,0,1,11.55-5,8.12,8.12,0,0,1,4.5,10.51,9.86,9.86,0,0,1-11.47,4.95A7.54,7.54,0,0,1,358.37,133.26Zm43.67,60-14.16,6.11-22.79-52.83,14.16-6.11Z" transform="translate(-3.26 -28.39)"/><path class="cls-4" d="M403.86,129.86l3.07,5.91q2.61-9.52,12.13-13.63,8.4-3.62,14.63-.46t10.56,12.93L459,168.74l-14.11,6.09L430.29,141q-1.94-4.49-4.76-5.68t-7.37.77a10.57,10.57,0,0,0-6.75,8.93l16.07,37.25-14.11,6.09-22.79-52.83Z" transform="translate(-3.26 -28.39)"/><path class="cls-4" d="M472.07,146.36a8.61,8.61,0,0,1,6.64-.37,8.35,8.35,0,0,1,4.61,10.69,9.61,9.61,0,0,1-11.43,4.93,7.72,7.72,0,0,1-4.47-4.38,7.8,7.8,0,0,1-.13-6.28A8.48,8.48,0,0,1,472.07,146.36Zm2.53-10.24-11.72,5.05L440,92.62l15-6.49Z" transform="translate(-3.26 -28.39)"/></svg>