<svg id="Ebene_1" data-name="Ebene 1" xmlns="http://www.w3.org/2000/svg" viewBox="0 0 472.84 396.94"><defs><style>.cls-1{fill:#816452;}.cls-2{fill:#fff;}.cls-3{fill:#ddd;stroke:#ec5c56;stroke-miterlimit:10;}.cls-4{fill:#ec5c56;}</style></defs><title>Win</title><path class="cls-1" d="M243.62,425.33l-7.46-34.89c-9.21-43-17.36-42.16-20.85-41.78-11.52,1.26-32.37,17.48-53.19,34.81l-30,25,11.62-37.3c8.41-27,5.46-36.12,3-39.17-4-4.81-15.51-6.21-34.33-4.16-5.32.58-11.23,1.43-18.08,2.6L55.73,337l28.78-26.45C111.06,286.18,115.2,274.51,114,269S104.37,254.79,71,244L30.59,230.87,72,221.71c33.84-7.48,42.86-12.66,45.23-15-1.2-2.32-6.43-9-29.28-23.08L39.06,153.49l56.74,8.86c25.83,4,42,5.32,52.55,4.18,6.52-.71,9.54-2.3,10.19-3.55,1.31-2.52,2.25-12.22-17.28-47.72L113.52,64.82l45,35.84c26.75,21.29,41.57,24.75,49.3,23.91,4-.43,16-1.75,20.94-38.55l4.65-35L250.36,82c6.84,12.52,15.9,26.75,25.29,25.73,5.53-.6,17.7-6.43,37-38.65l24.43-40.7-3,47.37c-1.89,29.65,2,40,5.61,43.42.78.75,2.86,2.74,10.08,2,13-1.42,33.32-11.17,47.48-18.38l38.6-19.65-23.7,36.25c-11.45,17.51-12.17,24-12.12,25.63,1.44.8,7.5,3,28.69.65q2.29-.25,4.71-.55l35.13-4.42L442.8,164.92c-18.7,17.6-27.49,30.55-26.15,38.5,1.25,7.34,11.83,15.5,31.46,24.25L478,241l-31.61,8.38c-32.93,8.74-49.48,17.24-53.64,27.58-3.91,9.7,1.09,25.47,15.75,49.61l15.9,26.19-29.23-9.2c-32.15-10.12-57.5-16.43-76.67-14.34C298,331.45,279.84,343.1,258,392.67ZM212.8,325.71c20.2-2.2,31.23,13,37.81,30.2C269.06,324,289.09,309.2,316,306.27c17.16-1.87,36.33,1.18,59.63,7.45-8.09-18.67-9.31-32.93-4.28-45.4,6.24-15.5,21.3-25.33,42.62-33.14-10-7.18-18.07-16.22-20.05-27.91-2.21-13,3.78-25.78,13-37.67-11.64-.73-21.4-4-26.61-12.5-3.66-6-4-12.85-2.27-20.08-10.25,4-18.5,6.25-25.7,7-11.88,1.3-21.47-1.47-28.53-8.21-6.11-5.84-10-14.14-11.88-26-11.43,12.83-22.46,19.57-33.73,20.8-13.95,1.52-24.71-5.67-32.8-14.68-7.13,19.18-18.84,29.75-35,31.51-9.43,1-20-1.15-31.8-6.62,4.77,14.37,4.73,24.52.46,32.74-7,13.54-22.94,15.27-28.16,15.84a114.66,114.66,0,0,1-17.38.38c5.5,6.69,8.08,13.45,6.86,20.67-1.91,11.34-11.93,18.64-29.64,24.77,13,7.14,23.12,16.3,25.85,28.8,2.93,13.42-3.54,27-13.72,39.84,15.72-.54,32,1.75,41.65,13.42,5.84,7.09,8.44,16.32,7.82,28.57C188.48,334,201.38,327,212.8,325.71Z" transform="translate(-10.47 -28.39)"/><path class="cls-2" d="M252.35,381.92c-14.53-68-32.79-63.33-92.71-13.42,18-57.74-4-65.51-62.41-55.53,48.72-44.77,45.28-65.65-17.81-86.1C143,212.8,153,200.9,98.93,167.64c79.24,12.38,94.46,3.39,57.35-64.06,67.57,53.77,83.9,15.15,88.86-22.15,15.31,28,38.8,60,82.36-12.52-4.36,68.36,18.52,69.27,79.92,38-26.68,40.8-14.85,49.43,32.38,43.49-40.74,38.35-41.72,59.3,8.53,81.69-65.64,17.41-80,36.26-44.8,94.34C320,300.15,287.82,301.38,252.35,381.92Z" transform="translate(-10.47 -28.39)"/><path class="cls-3" d="M57.71,279.65l2.81-40.59,17.26-6.57L71.21,290.9l10.58,27.79L65.73,324.8,55.15,297,11.41,257.74l17.31-6.59Z" transform="translate(-10.47 -28.39)"/><path class="cls-3" d="M96.11,280a36.13,36.13,0,0,1-2.49-16.35,25.56,25.56,0,0,1,5.49-13.84,29.32,29.32,0,0,1,12.85-9q11.53-4.39,21.5-.11t15.42,16.06l1.59,3.85q5,13.1.69,23.81t-16.62,15.39q-12.31,4.69-22.66-.41T96.37,280.72Zm15.62-4.71q3.09,8.12,7.78,11.25A11.73,11.73,0,0,0,136.89,280q1.49-5.42-2.06-14.75-3-8-7.8-11.15a10.8,10.8,0,0,0-10.4-1.05,10.63,10.63,0,0,0-7,7.64Q108.26,266.21,111.73,275.33Z" transform="translate(-10.47 -28.39)"/><path class="cls-3" d="M202.36,266.17q-3,9-13,12.77-9.16,3.48-16,.05t-10.79-13.55l-14.2-37.31,15.21-5.79,14,36.83q3.39,8.9,11.49,5.82,7.74-2.94,8.58-9.42l-15.36-40.36,15.26-5.81,21.67,56.94L205,271.8Z" transform="translate(-10.47 -28.39)"/><path class="cls-3" d="M299.26,212.24l-6.33-39.1,14.68-5.59L314.76,230,302,234.87,277.6,203.13l2.85,39.94-12.68,4.83-36.2-51.41,14.68-5.59,21.2,33.38-3.36-40.17,11-4.19Z" transform="translate(-10.47 -28.39)"/><path class="cls-3" d="M323.41,193.53a36.13,36.13,0,0,1-2.49-16.35,25.56,25.56,0,0,1,5.49-13.84,29.32,29.32,0,0,1,12.85-9q11.53-4.39,21.5-.11t15.42,16.06l1.59,3.85q5,13.1.69,23.81t-16.62,15.39q-12.31,4.69-22.66-.41t-15.51-18.68ZM339,188.82q3.09,8.12,7.78,11.25a11.73,11.73,0,0,0,17.39-6.56q1.49-5.42-2.06-14.75-3-8-7.8-11.15a10.8,10.8,0,0,0-10.4-1.05,10.63,10.63,0,0,0-7,7.64Q335.56,179.71,339,188.82Z" transform="translate(-10.47 -28.39)"/><path class="cls-3" d="M390.08,136.17l3,6.4q3.2-10,13.46-13.86,9.05-3.44,15.5.19t10.57,14.17l14,36.79-15.21,5.79-13.86-36.42q-1.84-4.84-4.78-6.22t-7.83.48a11.2,11.2,0,0,0-7.55,9.14l15.28,40.15-15.21,5.79-21.67-56.94Z" transform="translate(-10.47 -28.39)"/><path class="cls-3" d="M461.49,156.77a9.12,9.12,0,0,1,7-.09,8.84,8.84,0,0,1,4.39,11.53,10.17,10.17,0,0,1-12.31,4.69,8.17,8.17,0,0,1-4.53-4.85,8.26,8.26,0,0,1,.15-6.65A9,9,0,0,1,461.49,156.77ZM464.64,146,452,150.86,430,98.44l16.21-6.17Z" transform="translate(-10.47 -28.39)"/><path class="cls-4" d="M67.32,283.92l2.81-40.59,17.26-6.57-6.57,58.41L91.39,323l-16.05,6.11L64.76,301.28,21,262l17.31-6.59Z" transform="translate(-10.47 -28.39)"/><path class="cls-4" d="M105.72,284.31A36.13,36.13,0,0,1,103.24,268a25.56,25.56,0,0,1,5.49-13.84,29.32,29.32,0,0,1,12.85-9q11.53-4.39,21.5-.11T158.5,261l1.59,3.85q5,13.1.69,23.81t-16.62,15.39q-12.31,4.69-22.66-.41T106,285Zm15.62-4.71q3.09,8.12,7.78,11.25a11.73,11.73,0,0,0,17.39-6.56q1.49-5.42-2.06-14.75-3-8-7.8-11.15a10.8,10.8,0,0,0-10.4-1.05,10.63,10.63,0,0,0-7,7.64Q117.87,270.48,121.34,279.6Z" transform="translate(-10.47 -28.39)"/><path class="cls-4" d="M212,270.44q-3,9-13,12.77-9.16,3.48-16,.05t-10.79-13.55L158,232.41l15.21-5.79,14,36.83q3.39,8.9,11.49,5.82,7.74-2.94,8.58-9.42L192,219.49l15.26-5.81,21.67,56.94-14.31,5.45Z" transform="translate(-10.47 -28.39)"/><path class="cls-4" d="M308.87,216.51l-6.33-39.1,14.68-5.59,7.15,62.47-12.74,4.85-24.43-31.73,2.85,39.94-12.68,4.83-36.2-51.41,14.68-5.59,21.2,33.38-3.36-40.17,11-4.19Z" transform="translate(-10.47 -28.39)"/><path class="cls-4" d="M333,197.8a36.13,36.13,0,0,1-2.49-16.35A25.56,25.56,0,0,1,336,167.62a29.32,29.32,0,0,1,12.85-9q11.53-4.39,21.5-.11t15.42,16.06l1.59,3.85q5,13.1.69,23.81t-16.62,15.39q-12.31,4.69-22.66-.41t-15.51-18.68Zm15.62-4.71q3.09,8.12,7.78,11.25a11.73,11.73,0,0,0,17.39-6.56q1.49-5.42-2.06-14.75-3-8-7.8-11.15a10.8,10.8,0,0,0-10.4-1.05,10.63,10.63,0,0,0-7,7.64Q345.17,184,348.64,193.09Z" transform="translate(-10.47 -28.39)"/><path class="cls-4" d="M399.69,140.44l3,6.4q3.2-10,13.46-13.86,9.05-3.44,15.5.19t10.57,14.17l14,36.79L441,189.91l-13.86-36.42q-1.84-4.84-4.78-6.22t-7.83.48a11.2,11.2,0,0,0-7.55,9.14L422.26,197,407,202.83l-21.67-56.94Z" transform="translate(-10.47 -28.39)"/><path class="cls-4" d="M471.1,161a9.12,9.12,0,0,1,7-.09,8.84,8.84,0,0,1,4.39,11.53,10.17,10.17,0,0,1-12.31,4.69,8.17,8.17,0,0,1-4.53-4.85,8.26,8.26,0,0,1,.15-6.65A9,9,0,0,1,471.1,161Zm3.15-10.72-12.63,4.81-22-52.42,16.21-6.17Z" transform="translate(-10.47 -28.39)"/></svg>